<svg xmlns="http://www.w3.org/2000/svg" xmlns:xlink="http://www.w3.org/1999/xlink" id="Layer_1" x="0" y="0" version="1.1" viewBox="0 0 32 32" xml:space="preserve" style="enable-background:new 0 0 32 32"><style type="text/css">.st0{fill:#fff}.st1{fill:#252525}.st2{fill:#6cf24e}</style><title>map_takeoff</title><g><g><polygon points="19.2 25.4 18.5 24.7 16 27.2 13.5 24.7 12.8 25.4 15.3 27.9 12.8 30.4 13.5 31.1 16 28.6 18.5 31.1 19.2 30.4 16.7 27.9"/><path d="M13.5,24.7l2.5,2.5l2.5-2.5l0.7,0.7l-2.5,2.5l2.5,2.5l-0.7,0.7L16,28.6l-2.5,2.5l-0.7-0.7l2.5-2.5l-2.5-2.5 L13.5,24.7 M13.5,24l-0.4,0.4l-0.7,0.7l-0.4,0.4l0.4,0.4l2.1,2.1l-2.1,2.1l-0.4,0.4l0.4,0.4l0.7,0.7l0.4,0.4l0.4-0.4l2.1-2.1 l2.1,2.1l0.4,0.4l0.4-0.4l0.7-0.7l0.4-0.4l-0.4-0.4l-2.1-2.1l2.1-2.1l0.4-0.4l-0.4-0.4l-0.7-0.7L18.5,24l-0.4,0.4L16,26.5 l-2.1-2.1C13.9,24.4,13.5,24,13.5,24z" class="st0"/></g><path d="M18,17.4h-4c-0.6,0-1-0.4-1-1v-5h-2c-1.2,0.1-2.3-0.6-2.9-1.6C7.8,8.6,8.1,7.4,9,6.6l6.3-6.3 c0.4-0.4,1-0.4,1.4,0L23,6.6c0.9,0.8,1.3,2,0.8,3.2c-0.5,1.1-1.7,1.7-2.9,1.7h-2v5C19,17,18.6,17.4,18,17.4 C18,17.4,18,17.4,18,17.4L18,17.4z M15,15.4h2v-5c0-0.6,0.4-1,1-1h3c0.5,0,0.9-0.2,1-0.4S22,8.4,21.6,8L16,2.4L10.4,8 C10.1,8.4,9.9,8.7,10,9s0.5,0.4,1,0.4h3c0.6,0,1,0.4,1,1L15,15.4z" class="st0"/><path d="M18,16.4h-4v-6h-3c-0.8,0.1-1.6-0.3-1.9-1c-0.2-0.8,0-1.6,0.6-2.1L16,1l6.3,6.3c0.6,0.5,0.9,1.3,0.6,2.1 c-0.4,0.7-1.1,1.1-1.9,1h-3V16.4z" class="st1"/><path d="M15,9.4h-4c-1.1,0-1.4-0.6-0.6-1.4L16,2.4L21.6,8c0.8,0.8,0.5,1.4-0.6,1.4h-4v6h-2L15,9.4z" class="st2"/><path d="M7,16.4h18c0.6,0,1,0.4,1,1v6c0,0.6-0.4,1-1,1H7c-0.6,0-1-0.4-1-1v-6C6,16.9,6.4,16.4,7,16.4z" class="st0"/><rect width="16" height="4" x="8" y="18.4" class="st0"/><rect width="16" height="4" x="8" y="18.4" class="st2"/><path d="M25,23.4H7v-6h18V23.4z M8,22.4h16v-4H8V22.4z" class="st1"/></g></svg>