<svg xmlns="http://www.w3.org/2000/svg" xmlns:xlink="http://www.w3.org/1999/xlink" id="Layer_1" x="0" y="0" version="1.1" viewBox="0 0 200 200" xml:space="preserve" style="enable-background:new 0 0 200 200"><style type="text/css">.st0{opacity:.5;fill:#fff;stroke:#777;stroke-miterlimit:10;enable-background:new}.st1{fill:#777}</style><title>point-virtual</title><circle cx="100" cy="100" r="25" class="st0"/><path d="M101.8,98.3V87.8c0-1-0.8-1.8-1.8-1.8s-1.8,0.8-1.8,1.8l0,0l0,0v10.5H87.8c-1,0-1.8,0.8-1.8,1.8	s0.8,1.8,1.8,1.8l0,0h10.5v10.5c0,1,0.8,1.8,1.8,1.8s1.8-0.8,1.8-1.8l0,0v-10.5h10.5c1,0,1.8-0.8,1.8-1.8s-0.8-1.8-1.8-1.8H101.8z" class="st1"/></svg>